G04*
G04 #@! TF.GenerationSoftware,Altium Limited,Altium Designer,25.8.1 (18)*
G04*
G04 Layer_Color=65535*
%FSLAX44Y44*%
%MOMM*%
G71*
G04*
G04 #@! TF.SameCoordinates,5FE610AC-4606-444D-BD4F-D10E618BF681*
G04*
G04*
G04 #@! TF.FilePolarity,Positive*
G04*
G01*
G75*
%ADD10C,0.2500*%
%ADD11C,0.1000*%
%ADD12C,0.2000*%
%ADD13C,0.3400*%
%ADD14C,0.1270*%
%ADD15C,0.2540*%
%ADD16C,0.1500*%
D10*
X163035Y80917D02*
G03*
X163035Y80917I-1250J0D01*
G01*
X240123Y526469D02*
G03*
X240123Y526469I-1250J0D01*
G01*
Y358473D02*
G03*
X240123Y358473I-1250J0D01*
G01*
X478571D02*
G03*
X478571Y358473I-1250J0D01*
G01*
Y526469D02*
G03*
X478571Y526469I-1250J0D01*
G01*
X691267Y217032D02*
G03*
X691267Y217032I-1250J0D01*
G01*
D11*
X1085607Y253626D02*
G03*
X1085607Y252626I0J-500D01*
G01*
D02*
G03*
X1085607Y253626I0J500D01*
G01*
D12*
X430544Y129978D02*
G03*
X430544Y129978I-25000J0D01*
G01*
X430464Y50623D02*
G03*
X430464Y50623I-25000J0D01*
G01*
X541161Y163495D02*
G03*
X541161Y215495I-17783J26000D01*
G01*
X996658Y411711D02*
G03*
X996658Y359711I17783J-26000D01*
G01*
Y301414D02*
G03*
X996658Y249414I17783J-26000D01*
G01*
X470384Y216041D02*
G03*
X470384Y268041I-17783J26000D01*
G01*
X274736Y188121D02*
G03*
X274736Y240121I-17783J26000D01*
G01*
X553370Y325664D02*
G03*
X523050Y325559I-15120J-11506D01*
G01*
Y302758D02*
G03*
X553370Y302653I15200J11400D01*
G01*
X720363Y104862D02*
G03*
X720363Y104862I-25000J0D01*
G01*
X849697Y351224D02*
G03*
X849697Y351224I-130950J0D01*
G01*
X167785Y115417D02*
X177035D01*
X248535D02*
X257785D01*
Y59417D02*
Y115417D01*
X167785Y59417D02*
X257785D01*
X167785D02*
Y115417D01*
X100122Y501469D02*
Y601469D01*
X181873D02*
X210123D01*
X100122D02*
X128372D01*
X210123Y501469D02*
Y601469D01*
X181873Y501469D02*
X210123D01*
X100122D02*
X128372D01*
X754990Y88960D02*
Y134560D01*
X774090D01*
Y88960D02*
Y134560D01*
X754990Y88960D02*
X774090D01*
X755990Y96760D02*
X773090D01*
X764540Y84960D02*
Y88960D01*
Y134560D02*
Y138560D01*
X1066771Y132527D02*
X1106771D01*
X1066771Y155277D02*
Y158527D01*
Y132527D02*
Y135777D01*
Y158527D02*
X1106771D01*
Y155277D02*
Y158527D01*
Y132527D02*
Y135777D01*
X1066771Y200891D02*
X1106771D01*
X1066771Y223641D02*
Y226891D01*
Y200891D02*
Y204141D01*
Y226891D02*
X1106771D01*
Y223641D02*
Y226891D01*
Y200891D02*
Y204141D01*
X839434Y179976D02*
X885034D01*
X839434D02*
Y199076D01*
X885034D01*
Y179976D02*
Y199076D01*
X877233Y180976D02*
Y198076D01*
X885034Y189526D02*
X889034D01*
X835434D02*
X839434D01*
X98309Y44466D02*
Y48466D01*
Y94066D02*
Y98066D01*
X89759Y86266D02*
X106859D01*
X88759Y94066D02*
X107859D01*
X88759Y48466D02*
Y94066D01*
Y48466D02*
X107859D01*
Y94066D01*
X630675Y591179D02*
X670675D01*
X630675Y613928D02*
Y617179D01*
Y591179D02*
Y594429D01*
Y617179D02*
X670675D01*
Y613928D02*
Y617179D01*
Y591179D02*
Y594429D01*
X615172Y555300D02*
Y560560D01*
X552172Y536560D02*
Y541820D01*
X615172Y536560D02*
Y541820D01*
X552172Y555300D02*
Y560560D01*
X615172D01*
X552172Y536560D02*
X615172D01*
X754578Y555300D02*
Y560560D01*
X691579Y536560D02*
Y541820D01*
X754578Y536560D02*
Y541820D01*
X691579Y555300D02*
Y560560D01*
X754578D01*
X691579Y536560D02*
X754578D01*
X788669Y610703D02*
Y615963D01*
X725669Y591963D02*
Y597223D01*
X788669Y591963D02*
Y597223D01*
X725669Y610703D02*
Y615963D01*
X788669D01*
X725669Y591963D02*
X788669D01*
X1051307Y264126D02*
X1119907D01*
Y391126D01*
X1051307D02*
X1119907D01*
X1051307Y264126D02*
Y391126D01*
X886103Y368615D02*
X891363D01*
X904843Y305615D02*
X910103D01*
X904843Y368615D02*
X910103D01*
X886103Y305615D02*
X891363D01*
X886103D02*
Y368615D01*
X910103Y305615D02*
Y368615D01*
X1012642Y180953D02*
Y186213D01*
X949641Y162213D02*
Y167473D01*
X1012642Y162213D02*
Y167473D01*
X949641Y180953D02*
Y186213D01*
X1012642D01*
X949641Y162213D02*
X1012642D01*
X890915Y52459D02*
X896175D01*
X872175Y115459D02*
X877435D01*
X872175Y52459D02*
X877435D01*
X890915Y115459D02*
X896175D01*
Y52459D02*
Y115459D01*
X872175Y52459D02*
Y115459D01*
X811302Y116080D02*
X816562D01*
X830042Y53080D02*
X835302D01*
X830042Y116080D02*
X835302D01*
X811302Y53080D02*
X816562D01*
X811302D02*
Y116080D01*
X835302Y53080D02*
Y116080D01*
X712212Y45389D02*
Y50649D01*
X649212Y26649D02*
Y31909D01*
X712212Y26649D02*
Y31909D01*
X649212Y45389D02*
Y50649D01*
X712212D01*
X649212Y26649D02*
X712212D01*
X475955Y120367D02*
X481215D01*
X494695Y57367D02*
X499955D01*
X494695Y120367D02*
X499955D01*
X475955Y57367D02*
X481215D01*
X475955D02*
Y120367D01*
X499955Y57367D02*
Y120367D01*
X325920Y57334D02*
Y61334D01*
Y106934D02*
Y110934D01*
X317370Y99134D02*
X334470D01*
X316370Y106934D02*
X335470D01*
X316370Y61334D02*
Y106934D01*
Y61334D02*
X335470D01*
Y106934D01*
X337315Y201355D02*
Y206615D01*
X400315Y220095D02*
Y225355D01*
X337315Y220095D02*
Y225355D01*
X400315Y201355D02*
Y206615D01*
X337315Y201355D02*
X400315D01*
X337315Y225355D02*
X400315D01*
X155451Y180783D02*
X160711D01*
X136711Y243783D02*
X141971D01*
X136711Y180783D02*
X141971D01*
X155451Y243783D02*
X160711D01*
Y180783D02*
Y243783D01*
X136711Y180783D02*
Y243783D01*
X86577Y243247D02*
X91837D01*
X105317Y180247D02*
X110577D01*
X105317Y243247D02*
X110577D01*
X86577Y180247D02*
X91837D01*
X86577D02*
Y243247D01*
X110577Y180247D02*
Y243247D01*
X513011Y163495D02*
Y215495D01*
Y163495D02*
X519161D01*
X513011Y215495D02*
X519161D01*
X1024808Y359711D02*
Y411711D01*
X1018658D02*
X1024808D01*
X1018658Y359711D02*
X1024808D01*
Y249414D02*
Y301414D01*
X1018658D02*
X1024808D01*
X1018658Y249414D02*
X1024808D01*
X100122Y333473D02*
X128372D01*
X181873D02*
X210123D01*
Y433473D01*
X100122D02*
X128372D01*
X181873D02*
X210123D01*
X100122Y333473D02*
Y433473D01*
X338571Y333473D02*
X366821D01*
X420321D02*
X448571D01*
Y433473D01*
X338571D02*
X366821D01*
X420321D02*
X448571D01*
X338571Y333473D02*
Y433473D01*
X626386Y114227D02*
X631646D01*
X607646Y177227D02*
X612906D01*
X607646Y114227D02*
X612906D01*
X626386Y177227D02*
X631646D01*
Y114227D02*
Y177227D01*
X607646Y114227D02*
Y177227D01*
X557364Y120367D02*
X562625D01*
X576104Y57367D02*
X581364D01*
X576104Y120367D02*
X581364D01*
X557364Y57367D02*
X562625D01*
X557364D02*
Y120367D01*
X581364Y57367D02*
Y120367D01*
X188453Y243475D02*
X193713D01*
X207193Y180475D02*
X212453D01*
X207193Y243475D02*
X212453D01*
X188453Y180475D02*
X193713D01*
X188453D02*
Y243475D01*
X212453Y180475D02*
Y243475D01*
X933048Y117633D02*
X938308D01*
X951788Y54633D02*
X957048D01*
X951788Y117633D02*
X957048D01*
X933048Y54633D02*
X938308D01*
X933048D02*
Y117633D01*
X957048Y54633D02*
Y117633D01*
X935898Y317240D02*
X941158D01*
X954638Y254240D02*
X959898D01*
X954638Y317240D02*
X959898D01*
X935898Y254240D02*
X941158D01*
X935898D02*
Y317240D01*
X959898Y254240D02*
Y317240D01*
X442234Y216041D02*
Y268041D01*
Y216041D02*
X448384D01*
X442234Y268041D02*
X448384D01*
X246586Y240121D02*
X252736D01*
X246586Y188121D02*
X252736D01*
X246586D02*
Y240121D01*
X338571Y501469D02*
X366821D01*
X420321D02*
X448571D01*
Y601469D01*
X338571D02*
X366821D01*
X420321D02*
X448571D01*
X338571Y501469D02*
Y601469D01*
X566150Y309158D02*
Y319158D01*
X561150Y314158D02*
X571150D01*
X523010Y325008D02*
X523050Y325558D01*
X523010Y303309D02*
X523050Y302758D01*
X535400Y57367D02*
X540660D01*
X516660Y120367D02*
X521920D01*
X516660Y57367D02*
X521920D01*
X535400Y120367D02*
X540660D01*
Y57367D02*
Y120367D01*
X516660Y57367D02*
Y120367D01*
X939085Y435661D02*
Y455661D01*
X888085Y476661D02*
X928085D01*
X888085Y414661D02*
X928085D01*
X877086Y435661D02*
Y455661D01*
X539997Y613928D02*
Y617179D01*
Y591179D02*
Y594429D01*
Y591179D02*
X579997D01*
Y613928D02*
Y617179D01*
Y591179D02*
Y594429D01*
X539997Y617179D02*
X579997D01*
D13*
X1061965Y585989D02*
G03*
X1061965Y585989I-1700J0D01*
G01*
D14*
X1051265Y597989D02*
X1054264D01*
X1051265D02*
Y637989D01*
X991265D02*
X1051265D01*
X991265Y597989D02*
Y637989D01*
X972264Y597989D02*
X991265D01*
X972264Y457989D02*
Y597989D01*
Y457989D02*
X1054264D01*
Y597989D01*
D15*
X896081Y584086D02*
Y573929D01*
X901160Y568851D01*
X906238Y573929D01*
Y584086D01*
X911317Y576469D02*
X921473D01*
X916395Y581547D02*
Y571390D01*
X827243Y582410D02*
X824704Y584949D01*
X819626D01*
X817086Y582410D01*
Y572253D01*
X819626Y569714D01*
X824704D01*
X827243Y572253D01*
Y577332D01*
X822165D01*
X832321Y569714D02*
Y584949D01*
X842478Y569714D01*
Y584949D01*
X847557D02*
Y569714D01*
X855174D01*
X857713Y572253D01*
Y582410D01*
X855174Y584949D01*
X847557D01*
X132135Y30602D02*
Y45837D01*
X137213Y40759D01*
X142291Y45837D01*
Y30602D01*
X147370D02*
Y40759D01*
X152448Y45837D01*
X157527Y40759D01*
Y30602D01*
Y38219D01*
X147370D01*
X162605Y30602D02*
Y45837D01*
X172762Y30602D01*
Y45837D01*
X177840D02*
Y33141D01*
X180379Y30602D01*
X185457D01*
X187997Y33141D01*
Y45837D01*
X193075Y30602D02*
Y40759D01*
X198153Y45837D01*
X203232Y40759D01*
Y30602D01*
Y38219D01*
X193075D01*
X208310Y45837D02*
Y30602D01*
X218467D01*
X223545Y28063D02*
X233702D01*
X238780Y30602D02*
Y40759D01*
X243859Y45837D01*
X248937Y40759D01*
Y30602D01*
Y38219D01*
X238780D01*
X254015Y45837D02*
Y33141D01*
X256555Y30602D01*
X261633D01*
X264172Y33141D01*
Y45837D01*
X269250D02*
X279407D01*
X274329D01*
Y30602D01*
X292103Y45837D02*
X287025D01*
X284485Y43298D01*
Y33141D01*
X287025Y30602D01*
X292103D01*
X294642Y33141D01*
Y43298D01*
X292103Y45837D01*
X100584Y467863D02*
Y452628D01*
X110741D01*
X125976Y467863D02*
X115819D01*
Y460245D01*
X120897D01*
X115819D01*
Y452628D01*
X138672Y467863D02*
X133593D01*
X131054Y465324D01*
Y455167D01*
X133593Y452628D01*
X138672D01*
X141211Y455167D01*
Y465324D01*
X138672Y467863D01*
X146289Y450089D02*
X156446D01*
X161524Y467863D02*
Y452628D01*
X171681D01*
X184377Y467863D02*
X179298D01*
X176759Y465324D01*
Y455167D01*
X179298Y452628D01*
X184377D01*
X186916Y455167D01*
Y465324D01*
X184377Y467863D01*
X191994D02*
Y452628D01*
X197073Y457706D01*
X202151Y452628D01*
Y467863D01*
X339090D02*
Y452628D01*
X349247D01*
X364482Y467863D02*
X354325D01*
Y460245D01*
X359403D01*
X354325D01*
Y452628D01*
X377178Y467863D02*
X372099D01*
X369560Y465324D01*
Y455167D01*
X372099Y452628D01*
X377178D01*
X379717Y455167D01*
Y465324D01*
X377178Y467863D01*
X384795Y450089D02*
X394952D01*
X400030Y467863D02*
Y452628D01*
Y460245D01*
X410187D01*
Y467863D01*
Y452628D01*
X415265Y467863D02*
X420344D01*
X417804D01*
Y452628D01*
X415265D01*
X420344D01*
X438118Y465324D02*
X435579Y467863D01*
X430500D01*
X427961Y465324D01*
Y455167D01*
X430500Y452628D01*
X435579D01*
X438118Y455167D01*
Y460245D01*
X433040D01*
X443196Y467863D02*
Y452628D01*
Y460245D01*
X453353D01*
Y467863D01*
Y452628D01*
X1046667Y400995D02*
Y416230D01*
X1051745Y411152D01*
X1056823Y416230D01*
Y400995D01*
X1061902Y416230D02*
Y403534D01*
X1064441Y400995D01*
X1069519D01*
X1072058Y403534D01*
Y416230D01*
X1077137D02*
X1087293D01*
X1082215D01*
Y400995D01*
X1102529Y416230D02*
X1092372D01*
Y400995D01*
X1102529D01*
X1092372Y408612D02*
X1097450D01*
X940504Y610024D02*
Y620180D01*
X945582Y625259D01*
X950661Y620180D01*
Y610024D01*
Y617641D01*
X940504D01*
X955739Y625259D02*
Y612563D01*
X958278Y610024D01*
X963357D01*
X965896Y612563D01*
Y625259D01*
X970974D02*
X981131Y610024D01*
Y625259D02*
X970974Y610024D01*
X867156Y502153D02*
Y486918D01*
Y494535D01*
X877313D01*
Y502153D01*
Y486918D01*
X890008Y502153D02*
X884930D01*
X882391Y499614D01*
Y489457D01*
X884930Y486918D01*
X890008D01*
X892548Y489457D01*
Y499614D01*
X890008Y502153D01*
X897626D02*
Y486918D01*
X907783D01*
X912861Y502153D02*
Y486918D01*
X920479D01*
X923018Y489457D01*
Y499614D01*
X920479Y502153D01*
X912861D01*
X589026Y490982D02*
Y506217D01*
X594104Y501139D01*
X599183Y506217D01*
Y490982D01*
X611879Y506217D02*
X606800D01*
X604261Y503678D01*
Y493521D01*
X606800Y490982D01*
X611879D01*
X614418Y493521D01*
Y503678D01*
X611879Y506217D01*
X619496D02*
Y490982D01*
X627114D01*
X629653Y493521D01*
Y503678D01*
X627114Y506217D01*
X619496D01*
X644888D02*
X634731D01*
Y490982D01*
X644888D01*
X634731Y498599D02*
X639809D01*
X606992Y139969D02*
X607043Y155204D01*
X614661Y155178D01*
X617191Y152631D01*
X617174Y147552D01*
X614626Y145022D01*
X607009Y145048D01*
X612087Y145030D02*
X617148Y139935D01*
X622235Y142457D02*
X624766Y139909D01*
X629844Y139892D01*
X632392Y142422D01*
X632426Y152579D01*
X629896Y155127D01*
X624817Y155144D01*
X622270Y152613D01*
X622261Y150074D01*
X624791Y147527D01*
X632409Y147501D01*
X558030Y81718D02*
Y96953D01*
X565648D01*
X568187Y94414D01*
Y89336D01*
X565648Y86797D01*
X558030D01*
X563109D02*
X568187Y81718D01*
X573265Y94414D02*
X575804Y96953D01*
X580883D01*
X583422Y94414D01*
Y91875D01*
X580883Y89336D01*
X583422Y86797D01*
Y84257D01*
X580883Y81718D01*
X575804D01*
X573265Y84257D01*
Y86797D01*
X575804Y89336D01*
X573265Y91875D01*
Y94414D01*
X575804Y89336D02*
X580883D01*
X737749Y596877D02*
Y612113D01*
X745367D01*
X747906Y609573D01*
Y604495D01*
X745367Y601956D01*
X737749D01*
X742828D02*
X747906Y596877D01*
X752984D02*
X758063D01*
X755524D01*
Y612113D01*
X752984Y609573D01*
X765680Y612113D02*
X775837D01*
Y609573D01*
X765680Y599417D01*
Y596877D01*
X564171Y541459D02*
Y556694D01*
X571789D01*
X574328Y554155D01*
Y549076D01*
X571789Y546537D01*
X564171D01*
X569250D02*
X574328Y541459D01*
X579406D02*
X584485D01*
X581946D01*
Y556694D01*
X579406Y554155D01*
X592102D02*
X594641Y556694D01*
X599720D01*
X602259Y554155D01*
Y551615D01*
X599720Y549076D01*
X602259Y546537D01*
Y543998D01*
X599720Y541459D01*
X594641D01*
X592102Y543998D01*
Y546537D01*
X594641Y549076D01*
X592102Y551615D01*
Y554155D01*
X594641Y549076D02*
X599720D01*
X668580Y30792D02*
Y46027D01*
X676197D01*
X678736Y43488D01*
Y38410D01*
X676197Y35870D01*
X668580D01*
X673658D02*
X678736Y30792D01*
X693971Y46027D02*
X683815D01*
Y38410D01*
X688893Y40949D01*
X691432D01*
X693971Y38410D01*
Y33331D01*
X691432Y30792D01*
X686354D01*
X683815Y33331D01*
X474604Y82820D02*
Y98055D01*
X482222D01*
X484761Y95516D01*
Y90438D01*
X482222Y87899D01*
X474604D01*
X479683D02*
X484761Y82820D01*
X499996Y98055D02*
X494918Y95516D01*
X489840Y90438D01*
Y85359D01*
X492379Y82820D01*
X497457D01*
X499996Y85359D01*
Y87899D01*
X497457Y90438D01*
X489840D01*
X516089Y82434D02*
X516128Y97669D01*
X523745Y97649D01*
X526278Y95104D01*
X526265Y90026D01*
X523719Y87493D01*
X516102Y87512D01*
X521180Y87499D02*
X526246Y82408D01*
X531362Y97630D02*
X541519Y97605D01*
X541513Y95065D01*
X531330Y84934D01*
X531324Y82395D01*
X136480Y206956D02*
Y222191D01*
X144098D01*
X146637Y219652D01*
Y214573D01*
X144098Y212034D01*
X136480D01*
X141559D02*
X146637Y206956D01*
X161872D02*
X151715D01*
X161872Y217113D01*
Y219652D01*
X159333Y222191D01*
X154255D01*
X151715Y219652D01*
X190519Y206576D02*
Y221811D01*
X198137D01*
X200676Y219272D01*
Y214193D01*
X198137Y211654D01*
X190519D01*
X195598D02*
X200676Y206576D01*
X205754D02*
X210833D01*
X208293D01*
Y221811D01*
X205754Y219272D01*
X355401Y205815D02*
Y221050D01*
X363018D01*
X365557Y218511D01*
Y213433D01*
X363018Y210894D01*
X355401D01*
X360479D02*
X365557Y205815D01*
X378253D02*
Y221050D01*
X370636Y213433D01*
X380792D01*
X86121Y206766D02*
Y222001D01*
X93738D01*
X96278Y219461D01*
Y214383D01*
X93738Y211844D01*
X86121D01*
X91199D02*
X96278Y206766D01*
X101356Y219461D02*
X103895Y222001D01*
X108973D01*
X111513Y219461D01*
Y216922D01*
X108973Y214383D01*
X106434D01*
X108973D01*
X111513Y211844D01*
Y209305D01*
X108973Y206766D01*
X103895D01*
X101356Y209305D01*
X805138Y77731D02*
Y92966D01*
X812756D01*
X815295Y90427D01*
Y85349D01*
X812756Y82809D01*
X805138D01*
X810217D02*
X815295Y77731D01*
X820374D02*
X825452D01*
X822913D01*
Y92966D01*
X820374Y90427D01*
X843226Y77731D02*
X833070D01*
X843226Y87888D01*
Y90427D01*
X840687Y92966D01*
X835609D01*
X833070Y90427D01*
X962868Y166478D02*
Y181713D01*
X970486D01*
X973025Y179174D01*
Y174095D01*
X970486Y171556D01*
X962868D01*
X967946D02*
X973025Y166478D01*
X978103D02*
X983181D01*
X980642D01*
Y181713D01*
X978103Y179174D01*
X990799D02*
X993338Y181713D01*
X998417D01*
X1000956Y179174D01*
Y169017D01*
X998417Y166478D01*
X993338D01*
X990799Y169017D01*
Y179174D01*
X927239Y77521D02*
X927569Y92752D01*
X935185Y92587D01*
X937669Y89993D01*
X937559Y84916D01*
X934965Y82433D01*
X927349Y82598D01*
X932426Y82488D02*
X937393Y77301D01*
X942470Y77190D02*
X947548Y77080D01*
X945009Y77135D01*
X945340Y92367D01*
X942746Y89883D01*
X955163Y76915D02*
X960240Y76805D01*
X957702Y76860D01*
X958032Y92091D01*
X955439Y89608D01*
X879632Y330099D02*
Y345334D01*
X887250D01*
X889789Y342795D01*
Y337716D01*
X887250Y335177D01*
X879632D01*
X884710D02*
X889789Y330099D01*
X894867D02*
X899945D01*
X897406D01*
Y345334D01*
X894867Y342795D01*
X907563D02*
X910102Y345334D01*
X915181D01*
X917720Y342795D01*
Y340256D01*
X915181Y337716D01*
X912641D01*
X915181D01*
X917720Y335177D01*
Y332638D01*
X915181Y330099D01*
X910102D01*
X907563Y332638D01*
X704039Y541230D02*
Y556465D01*
X711656D01*
X714195Y553926D01*
Y548848D01*
X711656Y546309D01*
X704039D01*
X709117D02*
X714195Y541230D01*
X719274D02*
X724352D01*
X721813D01*
Y556465D01*
X719274Y553926D01*
X742126Y556465D02*
X737048Y553926D01*
X731970Y548848D01*
Y543770D01*
X734509Y541230D01*
X739587D01*
X742126Y543770D01*
Y546309D01*
X739587Y548848D01*
X731970D01*
X929439Y279125D02*
X929404Y294360D01*
X937021Y294378D01*
X939566Y291845D01*
X939578Y286766D01*
X937045Y284221D01*
X929427Y284203D01*
X934506Y284215D02*
X939596Y279149D01*
X944674Y279161D02*
X949753Y279172D01*
X947214Y279167D01*
X947178Y294402D01*
X944645Y291856D01*
X967491Y294449D02*
X957335Y294425D01*
X957352Y286808D01*
X962425Y289359D01*
X964964Y289365D01*
X967509Y286831D01*
X967521Y281753D01*
X964988Y279208D01*
X959909Y279196D01*
X957364Y281729D01*
X866293Y77351D02*
Y92586D01*
X873911D01*
X876450Y90047D01*
Y84969D01*
X873911Y82429D01*
X866293D01*
X871372D02*
X876450Y77351D01*
X881528D02*
X886607D01*
X884067D01*
Y92586D01*
X881528Y90047D01*
X901842Y77351D02*
Y92586D01*
X894224Y84969D01*
X904381D01*
X523745Y234949D02*
Y245106D01*
X521205Y247645D01*
X516127D01*
X513588Y245106D01*
Y234949D01*
X516127Y232410D01*
X521205D01*
X518666Y237488D02*
X523745Y232410D01*
X521205D02*
X523745Y234949D01*
X538980Y247645D02*
X528823D01*
Y240027D01*
X533901Y242567D01*
X536441D01*
X538980Y240027D01*
Y234949D01*
X536441Y232410D01*
X531362D01*
X528823Y234949D01*
X993645Y431037D02*
Y441194D01*
X991105Y443733D01*
X986027D01*
X983488Y441194D01*
Y431037D01*
X986027Y428498D01*
X991105D01*
X988566Y433576D02*
X993645Y428498D01*
X991105D02*
X993645Y431037D01*
X1006340Y428498D02*
Y443733D01*
X998723Y436115D01*
X1008880D01*
X993645Y320801D02*
Y330958D01*
X991105Y333497D01*
X986027D01*
X983488Y330958D01*
Y320801D01*
X986027Y318262D01*
X991105D01*
X988566Y323340D02*
X993645Y318262D01*
X991105D02*
X993645Y320801D01*
X998723Y330958D02*
X1001262Y333497D01*
X1006340D01*
X1008880Y330958D01*
Y328419D01*
X1006340Y325879D01*
X1003801D01*
X1006340D01*
X1008880Y323340D01*
Y320801D01*
X1006340Y318262D01*
X1001262D01*
X998723Y320801D01*
X452879Y287527D02*
Y297684D01*
X450339Y300223D01*
X445261D01*
X442722Y297684D01*
Y287527D01*
X445261Y284988D01*
X450339D01*
X447800Y290066D02*
X452879Y284988D01*
X450339D02*
X452879Y287527D01*
X468114Y284988D02*
X457957D01*
X468114Y295145D01*
Y297684D01*
X465574Y300223D01*
X460496D01*
X457957Y297684D01*
X257299Y259587D02*
Y269744D01*
X254759Y272283D01*
X249681D01*
X247142Y269744D01*
Y259587D01*
X249681Y257048D01*
X254759D01*
X252220Y262126D02*
X257299Y257048D01*
X254759D02*
X257299Y259587D01*
X262377Y257048D02*
X267455D01*
X264916D01*
Y272283D01*
X262377Y269744D01*
X103472Y621604D02*
Y636839D01*
X111089D01*
X113628Y634300D01*
Y629222D01*
X111089Y626683D01*
X103472D01*
X118707Y636839D02*
X123785D01*
X121246D01*
Y621604D01*
X118707D01*
X123785D01*
X131403Y636839D02*
X141559D01*
X136481D01*
Y621604D01*
X156794Y634300D02*
X154255Y636839D01*
X149177D01*
X146638Y634300D01*
Y624144D01*
X149177Y621604D01*
X154255D01*
X156794Y624144D01*
X161873Y636839D02*
Y621604D01*
Y629222D01*
X172029D01*
Y636839D01*
Y621604D01*
X177108Y619065D02*
X187264D01*
X192343Y636839D02*
Y621604D01*
X202500D01*
X215195Y636839D02*
X210117D01*
X207578Y634300D01*
Y624144D01*
X210117Y621604D01*
X215195D01*
X217735Y624144D01*
Y634300D01*
X215195Y636839D01*
X222813D02*
Y621604D01*
X227891Y626683D01*
X232970Y621604D01*
Y636839D01*
X342344Y617829D02*
Y633064D01*
X349962D01*
X352501Y630525D01*
Y625447D01*
X349962Y622908D01*
X342344D01*
X357579Y633064D02*
X362657D01*
X360118D01*
Y617829D01*
X357579D01*
X362657D01*
X370275Y633064D02*
X380432D01*
X375353D01*
Y617829D01*
X395667Y630525D02*
X393128Y633064D01*
X388049D01*
X385510Y630525D01*
Y620368D01*
X388049Y617829D01*
X393128D01*
X395667Y620368D01*
X400745Y633064D02*
Y617829D01*
Y625447D01*
X410902D01*
Y633064D01*
Y617829D01*
X415980Y615290D02*
X426137D01*
X431215Y633064D02*
Y617829D01*
Y625447D01*
X441372D01*
Y633064D01*
Y617829D01*
X446450Y633064D02*
X451529D01*
X448989D01*
Y617829D01*
X446450D01*
X451529D01*
X469303Y630525D02*
X466764Y633064D01*
X461685D01*
X459146Y630525D01*
Y620368D01*
X461685Y617829D01*
X466764D01*
X469303Y620368D01*
Y625447D01*
X464225D01*
X474381Y633064D02*
Y617829D01*
Y625447D01*
X484538D01*
Y633064D01*
Y617829D01*
X521234Y357277D02*
X521096Y342042D01*
X528713Y341973D01*
X531275Y344489D01*
X531367Y354646D01*
X528851Y357208D01*
X521234Y357277D01*
X546602Y354508D02*
X544086Y357070D01*
X539008Y357116D01*
X536446Y354600D01*
X536423Y352061D01*
X538939Y349498D01*
X544017Y349453D01*
X546533Y346890D01*
X546510Y344351D01*
X543948Y341835D01*
X538870Y341881D01*
X536354Y344443D01*
X551565Y341766D02*
X556643Y341720D01*
X554104Y341743D01*
X554242Y356978D01*
X551680Y354462D01*
X314251Y88502D02*
Y73267D01*
X321868D01*
X324407Y75806D01*
Y85963D01*
X321868Y88502D01*
X314251D01*
X337103Y73267D02*
Y88502D01*
X329486Y80884D01*
X339642D01*
X85751Y75799D02*
Y60564D01*
X93368D01*
X95907Y63103D01*
Y73259D01*
X93368Y75799D01*
X85751D01*
X100986Y73259D02*
X103525Y75799D01*
X108603D01*
X111143Y73259D01*
Y70720D01*
X108603Y68181D01*
X106064D01*
X108603D01*
X111143Y65642D01*
Y63103D01*
X108603Y60564D01*
X103525D01*
X100986Y63103D01*
X846517Y197115D02*
Y181880D01*
X854134D01*
X856673Y184419D01*
Y194576D01*
X854134Y197115D01*
X846517D01*
X871908Y181880D02*
X861752D01*
X871908Y192037D01*
Y194576D01*
X869369Y197115D01*
X864291D01*
X861752Y194576D01*
X753145Y118832D02*
Y103597D01*
X760763D01*
X763302Y106136D01*
Y116293D01*
X760763Y118832D01*
X753145D01*
X768380Y103597D02*
X773459D01*
X770919D01*
Y118832D01*
X768380Y116293D01*
X557705Y609870D02*
X555178Y612421D01*
X550099Y612444D01*
X547548Y609917D01*
X547501Y599760D01*
X550029Y597209D01*
X555107Y597186D01*
X557658Y599713D01*
X572952Y612338D02*
X567862Y609822D01*
X562760Y604768D01*
X562736Y599689D01*
X565263Y597138D01*
X570342Y597115D01*
X572893Y599642D01*
X572905Y602181D01*
X570377Y604732D01*
X562760Y604768D01*
X648669Y609858D02*
X646129Y612397D01*
X641051D01*
X638512Y609858D01*
Y599701D01*
X641051Y597162D01*
X646129D01*
X648669Y599701D01*
X653747Y612397D02*
X663904D01*
Y609858D01*
X653747Y599701D01*
Y597162D01*
X694238Y149691D02*
X691698Y152230D01*
X686620D01*
X684081Y149691D01*
Y139534D01*
X686620Y136995D01*
X691698D01*
X694238Y139534D01*
X709473Y152230D02*
X699316D01*
Y144612D01*
X704394Y147151D01*
X706933D01*
X709473Y144612D01*
Y139534D01*
X706933Y136995D01*
X701855D01*
X699316Y139534D01*
X372969Y93848D02*
X370430Y96387D01*
X365351D01*
X362812Y93848D01*
Y83691D01*
X365351Y81152D01*
X370430D01*
X372969Y83691D01*
X385665Y81152D02*
Y96387D01*
X378047Y88769D01*
X388204D01*
X373349Y173283D02*
X370810Y175822D01*
X365732D01*
X363192Y173283D01*
Y163126D01*
X365732Y160587D01*
X370810D01*
X373349Y163126D01*
X378427Y173283D02*
X380966Y175822D01*
X386045D01*
X388584Y173283D01*
Y170743D01*
X386045Y168204D01*
X383506D01*
X386045D01*
X388584Y165665D01*
Y163126D01*
X386045Y160587D01*
X380966D01*
X378427Y163126D01*
X1084062Y219030D02*
X1081523Y221569D01*
X1076444D01*
X1073905Y219030D01*
Y208873D01*
X1076444Y206334D01*
X1081523D01*
X1084062Y208873D01*
X1099297Y206334D02*
X1089140D01*
X1099297Y216491D01*
Y219030D01*
X1096758Y221569D01*
X1091679D01*
X1089140Y219030D01*
X1086125Y151068D02*
X1083585Y153607D01*
X1078507D01*
X1075968Y151068D01*
Y140911D01*
X1078507Y138372D01*
X1083585D01*
X1086125Y140911D01*
X1091203Y138372D02*
X1096281D01*
X1093742D01*
Y153607D01*
X1091203Y151068D01*
D16*
X366464Y130106D02*
X376461D01*
X371462Y135104D02*
Y125107D01*
X366384Y50750D02*
X376380D01*
X371382Y55749D02*
Y45752D01*
X656283Y104990D02*
X666280D01*
X661282Y109988D02*
Y99991D01*
M02*
