M48
;Layer_Color=9474304
;FILE_FORMAT=4:2
METRIC,TZ
;TYPE=PLATED
T01F00S00C0.70
T02F00S00C0.80
T03F00S00C0.85
T04F00S00C0.90
T05F00S00C0.95
T06F00S00C1.00
T08F00S00C1.20
T09F00S00C1.50
T10F00S00C1.52
T12F00S00C1.85
T13F00S00C3.18
%
T01
X19942Y11576
X22218Y11705
X27962Y13140
X29576Y13383
X30076
Y12700
X29576
X27200Y13140
X26604Y12743
Y11981
X22218Y12467
X19942Y12339
X24309Y17286
X24809
X25215Y17286
X25715
T02
X22913Y11751
X23113
X25812Y12293
X26012
X23114Y12544
X22914
T03
X23838Y11683
X24245
X24652
X25316Y11631
X26216
X27192Y11640
X27800Y11634
X28409Y11656
Y12556
X28320Y12987
X28438Y13652
Y14552
X27940Y14166
Y15066
X27800Y12534
X29220Y12987
X27192Y12540
X25155Y12252
X24652Y12583
X24245
X23838
X25155Y13152
X23097Y13378
X22197
X20963Y13814
X20446Y13817
X19944Y13812
Y12912
X20446Y12917
X20963Y12914
X24345Y16730
X25245
X25739
X26080Y17284
X26980
X26639Y16730
T04
X20836Y12054
X21086
X21336
Y12384
X21086
X20836
T05
X29035Y13739
Y13999
Y14259
Y14842
Y15102
Y15362
X24260Y13400
Y13140
Y12880
X23552Y13405
Y13665
Y13925
X21596Y13646
Y13386
Y13126
T06
X24227Y14386
X24455
X23594Y14829
Y15079
Y15329
X21210
Y15079
Y14829
Y16509
Y16759
Y17009
X23594
Y16759
Y16509
T08
X28364Y15476
X27714
Y15926
X28364
T09
X25361Y13972
X25074Y14470
Y15044
X25361Y15542
X25859Y15829
X26433
X26931Y15542
X27218Y15044
Y14470
X26931Y13972
X26433Y13685
X25859
X25813Y14564
X26479
X26146Y15142
T10
X27333Y16724
X28037
T12
X29815Y14051
Y14521
Y14991
T13
X19379Y11685
X29956
X19379Y17417
X29956
M30
